HIERARCHY
ROOT hip
{
	OFFSET 0.000000 0.000000 0.000000 
	CHANNELS 6 Xposition Yposition Zposition Xrotation Zrotation Yrotation
	JOINT abdomen
	{
		OFFSET 0.000000 3.402643 0.000000 
		CHANNELS 3 Xrotation Zrotation Yrotation
		JOINT chest
		{
			OFFSET 0.000000 8.438565 -0.680529 
			CHANNELS 3 Xrotation Zrotation Yrotation
			JOINT neck
			{
				OFFSET 0.000000 10.207942 -0.272212 
				CHANNELS 3 Xrotation Zrotation Yrotation
				JOINT head
				{
					OFFSET 0.000000 3.130431 0.000000 
					CHANNELS 3 Xrotation Zrotation Yrotation
					End Site
					{
						OFFSET 0.000000 3.130435 0.000000 
					}
				}
			}
			JOINT lCollar
			{
				OFFSET 3.470700 6.669187 -0.816635 
				CHANNELS 3 Yrotation Zrotation Xrotation
				JOINT lShldr
				{
					OFFSET 3.198488 0.000000 0.000000 
					CHANNELS 3 Zrotation Yrotation Xrotation
					JOINT lForeArm
					{
						OFFSET 10.139888 0.000000 0.000000 
						CHANNELS 3 Yrotation Zrotation Xrotation
						JOINT lHand
						{
							OFFSET 8.370511 0.000000 0.000000 
							CHANNELS 3 Zrotation Yrotation Xrotation
							End Site
							{
								OFFSET 4.083176 0.000000 0.000000 
							}
						}
					}
				}
			}
			JOINT rCollar
			{
				OFFSET -3.470700 6.669187 -0.816635 
				CHANNELS 3 Yrotation Zrotation Xrotation
				JOINT rShldr
				{
					OFFSET -3.198488 0.000000 0.000000 
					CHANNELS 3 Zrotation Yrotation Xrotation
					JOINT rForeArm
					{
						OFFSET -10.139888 0.000000 0.000000 
						CHANNELS 3 Yrotation Zrotation Xrotation
						JOINT rHand
						{
							OFFSET -8.370511 0.000000 0.000000 
							CHANNELS 3 Zrotation Yrotation Xrotation
							End Site
							{
								OFFSET -4.083176 0.000000 0.000000 
							}
						}
					}
				}
			}
		}
	}
	JOINT lThigh
	{
		OFFSET 5.308129 -1.633274 1.361059 
		CHANNELS 3 Xrotation Zrotation Yrotation
		JOINT lShin
		{
			OFFSET -2.041588 -20.007561 0.000000 
			CHANNELS 3 Xrotation Zrotation Yrotation
			JOINT lFoot
			{
				OFFSET 0.000000 -19.190928 -1.224953 
				CHANNELS 3 Xrotation Yrotation Zrotation
				End Site
				{
					OFFSET 0.000000 -2.449906 4.627600 
				}
			}
		}
	}
	JOINT rThigh
	{
		OFFSET -5.308129 -1.633274 1.361059 
		CHANNELS 3 Xrotation Zrotation Yrotation
		JOINT rShin
		{
			OFFSET 2.041588 -20.007561 0.000000 
			CHANNELS 3 Xrotation Zrotation Yrotation
			JOINT rFoot
			{
				OFFSET 0.000000 -19.190928 -1.224953 
				CHANNELS 3 Xrotation Yrotation Zrotation
				End Site
				{
					OFFSET 0.000000 -2.449906 4.627600 
				}
			}
		}
	}
}
MOTION
Frames: 10
Frame Time: 0.033333
-1.098223 49.391396 2.785023 -0.443760 -2.542263 -10.782415 0.000000 0.000000 0.000000 1.167294 2.427375 0.359147 3.582476 1.787074 -0.361457 8.967867 2.050270 -1.279875 -3.092675 -2.198776 1.639605 -66.674080 22.548588 -12.699410 -46.040638 -1.004622 21.783741 -12.287958 0.280791 -3.119148 6.753818 11.328928 0.918693 49.983177 -26.938940 -2.373093 53.289097 1.909359 25.976248 -1.663754 -2.206573 -3.509384 12.995757 12.303308 12.898946 1.627175 -2.369731 8.617802 -9.156115 0.756634 -9.452436 8.216514 -4.470058 -6.344316 1.054381 2.405499 -10.820213 -6.501338 -0.112082 1.540541 
-1.533400 49.400688 2.786686 -0.684663 -2.737197 -11.478167 0.000000 0.000000 0.000000 1.371428 2.605807 0.067638 3.504511 1.855351 -0.644826 8.598961 2.284533 -1.338773 -3.307934 -2.549785 1.854378 -71.120705 21.680979 -9.313883 -47.278042 -2.196145 20.217388 -13.045729 2.410431 -3.370601 6.592402 12.241136 1.059734 55.096802 -26.629768 -2.402011 53.028168 2.185734 25.819164 -4.531700 -2.910631 -3.527248 13.634153 12.846502 13.442977 1.731842 -2.169380 7.966935 -8.481886 0.820442 -10.425685 8.534976 -3.945473 -6.032714 1.084779 2.438320 -10.222539 -6.764954 -0.090047 1.177603 
-1.975184 49.375149 2.777827 -0.951762 -2.739719 -12.182322 0.000000 0.000000 0.000000 1.536867 2.720922 -0.374836 3.638864 1.747892 -0.761960 7.841662 2.353007 -1.192406 -4.124678 -2.744726 2.018493 -75.239777 21.167521 -5.837553 -49.372231 -3.177899 20.146839 -12.952271 3.575066 -3.519274 6.121423 12.591795 1.222785 60.274731 -26.520533 -2.333026 53.393826 2.555676 23.370604 -5.821409 -4.721135 -3.463809 14.285188 13.212412 14.026723 1.793272 -2.194977 7.582665 -8.172194 0.780459 -10.864304 8.751731 -3.669017 -5.995852 1.170670 2.627569 -9.456871 -7.004901 -0.079772 0.904987 
-2.495169 49.359764 2.728983 -0.099431 -2.380587 -13.791507 0.000000 0.000000 0.000000 0.844184 2.578910 -0.528181 3.185188 1.845616 -0.556666 7.961452 2.070138 -0.742409 -4.052338 -2.491292 1.384866 -77.998108 20.578667 -0.844232 -51.583984 -4.474537 24.301497 -9.271355 6.213573 -3.762890 6.157003 12.929270 0.546633 64.009842 -26.872997 -0.855043 53.670124 3.421875 19.298750 -6.436760 -6.350117 -3.380728 13.942069 13.514656 14.237818 1.830830 -2.329785 8.244305 -7.599297 0.776833 -11.565864 7.698749 -3.376273 -5.343460 1.308269 2.467200 -8.383515 -7.209998 -0.077243 0.906616 
-3.133651 49.314854 2.726907 -0.006707 -2.520692 -14.829427 0.000000 0.000000 0.000000 0.687731 2.711634 -0.991936 3.144513 1.943261 -0.576503 7.852782 1.728495 -0.283074 -4.200438 -2.184081 1.276756 -78.836082 20.195122 1.506853 -54.144421 -4.254149 35.808098 -3.792107 14.344584 -4.018302 5.827641 13.106377 0.398383 65.957993 -26.770247 2.714374 52.874264 4.744394 17.984865 -6.497219 -7.050187 -3.348567 14.432825 14.238535 15.100807 1.958072 -2.362906 8.099971 -7.032082 0.745031 -12.309393 7.690550 -2.586630 -4.724868 1.364787 2.401833 -8.067294 -7.488518 -0.026065 0.437949 
-3.721105 49.285786 2.661337 -0.148526 -2.631268 -16.502363 0.000000 0.000000 0.000000 0.852738 2.962187 -1.143112 3.296626 1.523432 -0.156195 8.206122 2.480460 -0.156104 -4.691657 -2.209555 1.451327 -75.518829 19.691198 3.305960 -54.635441 -4.713239 40.561810 -4.846566 8.222068 -3.766798 5.850160 13.273926 0.506830 66.255020 -26.640480 5.733203 52.183338 5.270682 24.213049 -0.679427 -4.963750 -3.522478 15.195110 14.765810 16.149588 2.137432 -2.468296 8.284351 -6.059077 0.674242 -12.604509 7.169906 -2.136478 -4.435056 2.592272 2.500650 -6.625906 -8.085557 -0.016499 -0.157877 
-4.322191 49.259869 2.668245 -0.571089 -3.083893 -17.995955 0.000000 0.000000 0.000000 1.240971 3.418210 -1.195964 3.678883 1.787096 0.224805 7.993876 2.187493 0.146750 -4.658414 -0.972283 1.859265 -71.739189 17.922943 7.568251 -53.997898 -6.269356 41.719398 -5.171865 2.477188 -3.446122 5.943652 13.724761 0.798754 65.608574 -26.341017 6.042259 52.073620 5.513186 21.367414 4.175156 -3.118934 -3.492569 16.258806 15.342065 17.111759 2.342068 -1.989093 7.854514 -4.377046 0.516349 -13.424686 6.897206 -1.454158 -4.116506 4.381155 2.623300 -5.362800 -9.024997 0.085321 -1.057906 
-4.853164 49.237736 2.723321 -1.207494 -2.536563 -19.776325 0.000000 0.000000 0.000000 1.526730 2.917252 -1.099633 4.122170 2.197169 0.537838 7.478516 1.288943 0.781492 -4.567172 -0.169598 2.122163 -68.569511 16.597393 9.682930 -54.388577 -6.908908 41.249969 -8.094009 -0.256414 -3.189075 6.191167 14.058160 1.050313 62.678951 -26.159119 7.435343 52.683762 5.744732 22.754110 3.492734 -4.262409 -3.547270 17.245543 14.805070 17.122696 2.516625 -1.470381 7.310878 -1.791166 0.241044 -13.681467 6.942213 -1.806480 -4.227285 5.513594 2.438612 -3.337187 -9.717625 0.077299 -1.106916 
-5.417385 49.234940 2.699393 -1.456025 -2.505971 -21.085621 0.000000 0.000000 0.000000 1.741200 3.046545 -1.288403 4.419828 2.060391 0.703724 7.323522 1.884549 0.869634 -5.094492 -0.422389 2.324824 -64.555550 15.909060 11.636163 -55.129185 -7.660462 37.662025 -8.422459 -0.506907 -3.153192 5.699862 13.684154 1.298682 58.345100 -24.538897 11.103371 52.181915 6.489668 26.596478 3.332847 -4.203361 -3.541692 12.898856 16.082891 16.151157 11.979320 -0.398583 6.435603 -2.978611 0.415561 -14.009697 6.546945 -1.395705 -3.873119 6.956565 2.262562 -2.546042 -10.180547 0.127833 -1.483813 
-6.043675 49.209110 2.632330 -1.673257 -2.700903 -22.350542 0.000000 0.000000 0.000000 2.053859 3.165348 -1.691983 4.864818 1.923581 0.918763 6.878791 2.909681 1.036796 -4.984887 -0.444343 2.626791 -62.233028 15.437182 11.914822 -55.561661 -7.715471 36.428307 -8.082684 0.593624 -3.259815 5.272825 13.199239 1.636914 54.409695 -22.269655 14.628101 51.810558 7.315493 28.814837 2.650181 -4.839495 -3.564701 7.389068 17.554777 14.689034 23.028427 1.053504 6.511332 -3.618903 0.447472 -13.391040 6.506195 -0.556293 -3.191788 7.615757 2.040025 -2.196780 -10.731541 0.211074 -2.474028 
